<?xml version="1.0" standalone="no"?>
<!DOCTYPE svg PUBLIC "-//W3C//DTD SVG 20010904//EN"
 "http://www.w3.org/TR/2001/REC-SVG-20010904/DTD/svg10.dtd">
<svg version="1.0" xmlns="http://www.w3.org/2000/svg"
 width="512.000000pt" height="512.000000pt" viewBox="0 0 512.000000 512.000000"
 preserveAspectRatio="xMidYMid meet">

<g transform="translate(0.000000,512.000000) scale(0.100000,-0.100000)"
fill="#000000" stroke="none">
<path d="M2445 5106 c-151 -48 -251 -162 -278 -319 -10 -58 -7 -91 26 -313 35
-234 36 -249 20 -257 -44 -24 -110 -105 -123 -150 -15 -57 -9 -217 11 -262 24
-55 69 -115 105 -139 l35 -24 -63 -11 c-35 -5 -97 -16 -138 -23 -103 -16 -120
-34 -120 -125 0 -64 -2 -70 -28 -85 -50 -30 -120 -110 -152 -174 -65 -132 -78
-323 -30 -447 34 -89 98 -176 171 -231 53 -40 66 -57 77 -94 l14 -45 -146
-146 -146 -146 -27 18 c-292 185 -616 235 -918 140 -549 -172 -858 -754 -688
-1298 137 -437 542 -736 998 -735 54 0 145 -13 285 -41 l205 -41 275 40 276
41 438 -120 439 -119 888 0 c488 0 895 3 904 6 19 8 357 509 362 539 3 15
-380 1634 -402 1701 -2 8 -24 7 -74 -5 -38 -9 -73 -19 -76 -23 -3 -3 82 -370
189 -816 108 -445 196 -815 196 -821 0 -6 -61 -103 -137 -216 l-136 -205 -525
0 c-497 0 -524 1 -511 17 8 10 111 126 228 258 118 132 235 263 259 290 25 28
59 79 76 115 l31 65 3 215 4 216 56 29 c69 36 172 131 206 190 47 79 59 153
53 310 -18 427 -159 666 -442 751 -93 28 -278 26 -375 -4 -243 -76 -400 -281
-446 -582 -18 -123 -18 -199 2 -245 l15 -37 -84 -87 c-56 -58 -89 -102 -100
-132 -9 -24 -44 -185 -78 -356 -59 -297 -63 -313 -84 -313 -20 0 -536 72 -612
85 l-33 6 0 221 c0 143 -4 235 -12 262 -8 27 -32 61 -69 98 l-56 57 43 42 c24
24 45 41 48 38 2 -2 37 -78 78 -169 122 -268 230 -490 240 -490 7 0 127 57
136 65 2 2 -20 49 -48 105 -136 270 -334 719 -471 1063 -135 341 -123 266
-127 769 l-3 437 23 6 c41 9 262 45 264 42 26 -33 34 -77 34 -192 l0 -126 206
-372 c113 -205 215 -380 226 -390 46 -39 54 -34 494 318 246 196 423 344 428
358 18 48 0 74 -89 134 -84 55 -85 56 -68 77 10 12 19 23 20 25 4 6 766 -480
784 -499 8 -10 21 -43 28 -75 8 -35 17 -55 24 -52 7 2 38 10 71 18 32 7 60 18
63 25 7 20 -29 165 -47 185 -8 9 -200 135 -427 278 l-412 262 22 64 c22 64 22
64 94 100 121 61 173 144 181 292 6 126 -8 173 -72 239 -28 28 -57 53 -64 55
-9 3 -4 59 24 239 39 255 40 319 6 408 -43 113 -138 202 -251 236 -48 14 -127
16 -605 15 -416 0 -561 -3 -591 -13z m1204 -179 c52 -35 98 -105 107 -164 5
-37 -30 -329 -41 -341 -2 -2 -35 43 -74 101 -38 57 -77 107 -86 111 -22 8
-1008 8 -1030 0 -9 -4 -48 -54 -86 -111 -39 -58 -72 -103 -74 -101 -11 11 -46
300 -41 337 11 82 80 169 153 191 15 5 276 8 579 7 l550 -2 43 -28z m-110
-540 l61 -93 0 -290 c0 -162 -5 -316 -11 -350 -17 -97 -78 -211 -154 -287
-218 -220 -568 -220 -790 -1 -75 75 -137 190 -154 288 -6 34 -11 188 -11 350
l0 290 61 93 62 93 437 0 437 0 62 -93z m-1219 -459 l0 -151 -26 24 c-39 36
-54 80 -54 159 0 62 3 74 25 95 13 14 31 25 40 25 13 0 15 -22 15 -152z m1495
127 c22 -21 25 -33 25 -95 0 -79 -15 -123 -54 -159 l-26 -24 0 151 c0 130 2
152 15 152 9 0 27 -11 40 -25z m-1090 -943 c99 -49 183 -67 320 -66 112 1 141
4 210 27 44 14 107 42 140 62 63 39 68 38 124 -4 l24 -18 -304 -243 c-167
-134 -311 -249 -319 -256 -14 -12 -33 19 -155 238 -77 139 -154 278 -172 309
l-32 58 62 -43 c34 -24 80 -53 102 -64z m-807 -264 l-3 -123 -34 67 c-56 113
-54 246 7 368 l27 55 3 -122 c1 -68 1 -178 0 -245z m2140 -383 c79 -19 113
-36 168 -87 84 -77 134 -199 159 -388 32 -233 16 -330 -67 -413 -76 -76 -239
-137 -364 -137 l-34 0 0 -81 0 -82 80 7 80 7 0 -168 c0 -156 -2 -171 -24 -218
-16 -33 -121 -158 -306 -364 -155 -173 -293 -323 -306 -333 -50 -40 -99 -48
-283 -48 l-176 0 -444 121 -445 121 -277 -41 -277 -40 -308 61 c-329 66 -354
75 -354 130 0 28 197 526 217 550 8 9 25 19 37 22 13 3 141 -28 306 -74 163
-46 303 -80 329 -80 62 0 125 33 166 88 50 64 65 125 65 259 0 108 1 115 25
138 32 33 78 33 110 0 l25 -24 0 -271 c0 -268 0 -271 23 -293 20 -21 71 -30
572 -101 303 -43 559 -80 571 -83 19 -4 22 2 33 72 7 42 11 78 9 81 -2 2 -51
10 -108 19 -57 9 -106 18 -109 21 -7 7 108 591 124 629 7 17 33 49 57 73 l45
43 33 -83 c18 -46 34 -84 35 -85 3 -4 129 48 138 56 5 5 -26 93 -68 197 l-76
189 6 83 c21 281 156 479 360 528 69 17 178 16 253 -1z m-1938 -430 l81 -199
-84 -84 -84 -84 -26 54 c-38 78 -97 165 -150 224 -26 29 -47 56 -47 60 0 10
222 235 227 230 1 -1 39 -92 83 -201z m-848 96 c239 -62 442 -219 573 -441 7
-11 1 -10 -20 4 -139 91 -304 160 -475 197 -147 33 -388 33 -537 1 -180 -39
-348 -109 -494 -207 -45 -30 -84 -55 -86 -55 -2 0 6 19 18 43 122 240 364 422
626 472 105 20 292 13 395 -14z m-22 -385 c107 -17 227 -52 328 -97 67 -30
248 -145 270 -172 9 -10 9 -26 0 -65 l-13 -52 -818 0 -818 0 21 29 c51 73 220
195 353 256 223 101 450 135 677 101z m-279 -583 c-16 -22 -75 -153 -137 -308
-96 -239 -108 -277 -108 -332 -1 -74 0 -74 -114 -10 -90 50 -183 126 -241 195
-43 52 -144 212 -138 219 2 2 41 -22 86 -52 82 -55 224 -128 272 -140 23 -6
26 -1 49 64 13 39 22 72 20 74 -3 3 -40 21 -82 40 -97 44 -225 128 -301 197
-108 98 -135 90 323 90 l401 0 -30 -37z m865 10 c-10 -42 -40 -78 -67 -81 -13
-1 -109 22 -214 52 l-190 54 239 1 238 1 -6 -27z"/>
<path d="M4557 2560 c-38 -10 -70 -20 -72 -22 -3 -3 18 -102 30 -145 3 -8 21
-7 72 4 37 8 72 18 76 22 8 8 -22 162 -32 160 -3 0 -37 -9 -74 -19z"/>
</g>
</svg>
