<?xml version="1.0" encoding="utf-8"?>
<!-- Generator: Adobe Illustrator 28.0.0, SVG Export Plug-In . SVG Version: 6.00 Build 0)  -->
<svg version="1.1" id="Layer_1" xmlns="http://www.w3.org/2000/svg" xmlns:xlink="http://www.w3.org/1999/xlink" x="0px" y="0px"
	 viewBox="0 0 1417.3 732" style="enable-background:new 0 0 1417.3 732;" xml:space="preserve">
<style type="text/css">
	.st0{fill:#FFFFFF;}
	.st1{fill:#FFFFFF;}
	.st2{fill:#FFFFFF;}
	.st3{fill:#FFFFFF;}
	.st4{fill:#FFFFFF;}
	.st5{fill:#FFFFFF;}
	.st6{fill:#FFFFFF;}
	.st7{fill:#FFFFFF;}
	.st8{fill:#FFFFFF;}
</style>
<path class="st0" d="M721.5,370c0-20.1,0-39.7,0-59.9c11.3,0,22.1,0,32.8,0c10.8,0,10.8,0,13.5,10.3c6,23.2,12,46.4,18,69.7
	c0.4,1.4,0.9,2.8,1.8,5.8c1-2.9,1.6-4.4,2-6c6.5-25,13-50,19.3-75c1-3.8,2.5-4.9,6.4-4.9c12.8,0.3,25.6,0.1,38.9,0.1
	c0,2.2,0,4,0,5.8c0,65,0,130,0.1,194.9c0,4.7-1,6.4-6,6.1c-9.6-0.4-19.3-0.1-29-0.1c-1.6,0-3.2-0.1-5.5-0.3c0-30.7,0-61,0-91.4
	c-0.5-0.1-1.1-0.2-1.6-0.3c-8,25.1-16,50.2-24,75.3c-0.4,0-0.8,0-1.2,0c-7.9-25.2-15.9-50.4-23.8-75.6c-0.5,0.1-1,0.2-1.4,0.2
	c0,30.5,0,61,0,91.8c-13.7,0-26.8,0-40.3,0C721.5,467.7,721.5,419.1,721.5,370z"/>
<path class="st1" d="M419.9,521.3c-4.5-1.2-8.8-2.7-12.6-4c-0.2-1.3-0.4-1.7-0.3-1.9c2.7-4.8,3.5-9.2,0.8-14.8
	c-2-4.3-1.9-9.8-1.9-14.7c-0.1-49.8-0.1-99.6,0-149.4c0-16.7,8.3-26.2,24.4-26.6c19.8-0.5,39.6-0.2,59.4,0.3
	c5.4,0.2,10.3,1.6,11.2-6.3c4.7,2.1,8.8,3.9,12.7,5.6c0.2,0.6,0.5,1,0.4,1.2c-3.9,6.3-4.3,12.7-1.5,19.7c1.1,2.8,0.6,6.3,0.6,9.4
	c0,48,0,95.9,0,143.9c0,3,0,6-0.3,9c-1.4,14.7-10.2,23.8-25,24c-20.8,0.2-41.6-0.3-62.4-0.9C421,515.6,421.7,519.1,419.9,521.3
	 M446.9,377.5c0,15.9,0,31.7,0,47.6c1.8-1.2,2.5-2.4,3-3.8c6.3-16.3,12.2-32.8,19-48.9c3-7.3,3.1-14.5,3-22c-0.1-3.5-1.8-4.7-5-4.6
	c-4.8,0.1-9.7,0.2-14.5,0c-4.2-0.2-5.6,1.7-5.5,5.7C447,359.8,446.9,368.2,446.9,377.5 M471.8,461.5c0-18.2,0-36.5,0-54.7
	c-0.4-0.1-0.9-0.1-1.3-0.2c-0.6,1.5-1.3,3-1.9,4.5c-6.5,16.9-13.3,33.7-19.5,50.7c-1.6,4.5-1.6,9.7-2.1,14.6
	c-0.3,3.1,1.6,4.4,4.6,4.4c5.2-0.1,10.3-0.1,15.5,0c3.5,0.1,4.8-1.6,4.8-4.9C471.8,471.5,471.8,467,471.8,461.5z"/>
<path class="st1" d="M342.7,503.1c-5.7-22-11.3-43.7-16.9-65.3c-0.5,0.1-1,0.2-1.6,0.2c0,26,0,52,0,78.4c-12.9,0-25.1,0-37.8,0
	c0-68.5,0-137,0-206.1c1.6-0.1,3.3-0.2,5.1-0.3c9.5,0,19,0.2,28.5-0.1c3.8-0.1,5.5,0.9,6.4,4.8c5.5,22.5,11.3,44.9,17,67.4
	c0.4,1.5,1,3,2.6,4.4c0-25.3,0-50.6,0-76.2c14.4,0,28.2,0,42.3,0c0,68.7,0,137.2,0,206.5c-3.1,0-6.2,0-9.3,0c-9.5,0-19-0.1-28.5,0.1
	c-3.2,0.1-4.9-0.9-5.4-4.2C344.6,509.6,343.6,506.6,342.7,503.1z"/>
<path class="st0" d="M1081.7,310.1c12.1,0,23.8,0,35.9,0c2.4,12.9,4.7,25.4,7.2,38.8c-2.1,0-3.6,0-5.2,0c-13.3,0-26.7,0-40,0
	c-5.8,0-6.7,1-6.7,6.7c0,11.3,0.1,22.7-0.1,34c-0.1,4.4,1.7,6.6,6.1,6.6c7.8,0.1,15.7,0.1,23.5,0.2c2.8,0,5.7,0.1,8.5,0.6
	c8.9,1.4,14.1,6.5,14.2,15.4c0.3,27.2,0.5,54.3-0.1,81.5c-0.3,13.5-9,22.1-22.7,22.6c-18.8,0.7-37.7,0.4-56.5,0.3
	c-1.2,0-3.2-1.5-3.4-2.5c-2.4-11.5-4.5-23.2-6.9-35.4c2.1-0.1,3.9-0.3,5.6-0.3c12,0,24,0,36,0c6.7,0,7.6-0.9,7.6-7.4
	c0-10.8,0-21.7,0-32.5c0-7.2-0.7-7.8-8.1-7.9c-9-0.1-18,0-27-0.7c-9.4-0.6-14.8-5.9-16.5-15.2c-0.3-1.8-0.5-3.6-0.5-5.5
	c-0.1-24.7-0.3-49.3,0-74c0.2-15.7,9.8-24.9,25.6-25.3C1065.8,309.9,1073.5,310.1,1081.7,310.1z"/>
<path class="st1" d="M994,385c0,44.1,0,87.7,0,131.9c-13.6,0-26.5,0.1-39.5-0.1c-0.9,0-2.2-1.5-2.7-2.6c-0.5-0.9-0.1-2.3-0.1-3.5
	c0-52,0-104,0-156c0-1.7,0-3.3,0-5.6c-9,0-17.9,0-27.7,0c3.8-13.4,7.3-26,10.9-38.8c1.7-0.1,3.2-0.2,4.7-0.2c22.3,0,44.7,0.1,67-0.1
	c3.6,0,5.3,0.8,6.2,4.5c2.7,11.3,5.9,22.5,9,34.3c-9.5,0-18.2,0-27.6,0C994,361,994,372.7,994,385z"/>
<path class="st0" d="M608.5,473.9c-0.5,3.9,1.2,4.7,4.3,4.7c10.5-0.2,21,0,31.5,0c1.6,0,3.3,0,5.8,0c-1.1,5.8-2.1,11.2-3,16.5
	c-1.1,6.1-2.1,12.2-3.5,18.2c-0.3,1.4-2.3,3.5-3.5,3.5c-24.2,0.2-48.3,0.1-72.5,0c-0.3,0-0.6-0.2-1.3-0.5c0-68.4,0-136.9,0-205.8
	c13.9,0,27.8,0,42.2,0C608.5,364.9,608.5,419.1,608.5,473.9z"/>
<path class="st2" d="M662.9,512.7c0-67.6,0-134.7,0-202.2c13.9,0,27.4,0,41.2,0c0,68.7,0,137.2,0,206.4c-8.5,0-16.8,0-25.1,0
	c-4.2,0-8.3-0.1-12.5,0C663.7,517,662.6,515.9,662.9,512.7z"/>
<path class="st1" d="M912.7,360c0,52.4,0,104.3,0,156.5c-14,0-27.4,0-41.1,0c0-68.6,0-137.2,0-206.1c13.4,0,26.8,0,41.1,0
	C912.7,326.7,912.7,343.1,912.7,360z"/>
<path class="st3" d="M672.5,247.2c-3-2.1-5.6-4.1-9-6.6c2.5-2.2,4.7-4,6.6-6c9-8.9,14.8-19.6,17-32.1c0.6-3.3,1.9-4.5,5.2-4.2
	c3.6,0.3,7.3,0.1,11.2,0.1c0,19.4,0,38.5,0,58.2C692.3,256.7,682.2,253.1,672.5,247.2z"/>
<path class="st3" d="M688.5,189.3c-0.8-17.8-7.5-32.6-20.4-45.1c10.7-7.8,22.2-12.2,35.5-12.7c0,21,0,41.5,0,62.4
	c-4.8,0-9.6,0-14.8,0C688.7,192.5,688.6,191.1,688.5,189.3z"/>
<path class="st3" d="M717.7,256.1c-1,0.1-2.1,0.2-3.9,0.2c-4.4,0.7-5.3-0.9-5.2-4.3c0.1-17.7,0-35.4-0.1-53.1
	c4.6-0.2,9.3-0.3,14.4-0.2c1,1,1.4,1.6,1.8,2.3c0,0.4,0.1,0.9,0.1,2c1.1,4,2.2,7.3,3.4,10.6c4,11.1,11.4,19.6,20.8,27.5
	c-4.7,3-9.2,5.9-14.3,8.9c-1.2,0.6-1.9,1.1-2.6,1.5c-2.5,0.9-5.1,1.9-8.3,2.8c-1.2,0.3-1.7,0.6-2.2,0.9c-0.4,0-0.8,0.1-1.9,0.2
	C718.7,255.6,718.2,255.8,717.7,256.1z"/>
<path class="st3" d="M682.8,177.8c0.6,5.5,1.2,10.6,1.8,16c-14.2,0-27.6,0-41.4,0c0.4-18.7,7.5-33.9,21.3-46.8
	C674.1,155.4,679.8,165.5,682.8,177.8z"/>
<path class="st3" d="M732.3,167.9c3.7-5.9,7.3-11.9,11.1-17.7c2.3-3.5,5-3.3,7.5,0c3.1,4.1,6.2,8.1,9.5,12.8c1,1.9,1.8,3.2,2.6,4.5
	c0.5,1.3,1,2.5,1.6,4.4c1.1,3.4,2,6.2,3,9c0,0.4,0.1,0.9,0.1,1.9c0.3,1.8,0.6,2.9,0.9,4.1c0,2.1,0,4.3,0,7.1
	c-13.1,0-26.1,0-39.7-0.5c-0.6-3.9-0.7-7.3-0.8-10.8c0.1-0.7,0.3-1.4,0.6-2.8c0.6-2.5,0.9-4.4,1.3-6.2c0.3-0.9,0.7-1.7,1.3-3.1
	C732,169.4,732.2,168.7,732.3,167.9z"/>
<path class="st2" d="M708.5,131.9c2.1,0,4.2,0,7,0.2c1.6,0.3,2.4,0.4,3.3,0.4c0.4,0.1,0.8,0.2,1.8,0.6c3.1,1,5.7,1.7,8.2,2.4
	c0.6,0.3,1.2,0.5,2.2,1.1c1.9,0.9,3.3,1.4,4.7,2c2.1,1.4,4.2,2.7,6.7,4.6c0.5,1,0.6,1.5,0.7,1.9c-0.7,0.7-1.5,1.4-2.7,2.5
	c-0.9,1-1.3,1.7-1.8,2.4c-0.4,0.4-0.7,0.8-1.5,1.5c-1.1,1.4-1.7,2.5-2.4,3.6c-1.4,2.3-2.8,4.6-4.6,7.4c-2,5.2-3.5,9.9-5.1,14.6
	c-0.1,0.4-0.2,0.8-0.5,1.8c-0.3,1.8-0.4,3-0.4,4.2c-0.1,1-0.2,2.1-0.5,3.8c-0.4,2.9-0.7,5.1-0.9,7.3c-4.1,0-8.1,0-12.9-0.3
	c-0.9-2.1-1.2-3.9-1.2-5.7C708.5,169.4,708.5,150.7,708.5,131.9z"/>
<path class="st4" d="M655.7,198.4c9.5,0,18.4,0,28,0c-2.6,16.3-10.1,28.8-23.1,39c-10.3-11-15.9-23.6-17.2-39
	C647.7,198.4,651.4,198.4,655.7,198.4z"/>
<path class="st4" d="M728.5,200c0.9-0.5,1.8-1.5,2.7-1.5c11.8-0.1,23.7-0.1,35.5,0c0.6,0,1.2,0.5,1.6,1.5c-0.2,2.2-0.3,3.7-0.4,5.2
	c-0.1,0.4-0.2,0.8-0.6,1.8c-1,3.4-1.7,6.3-2.4,9.2c-0.5,1.2-1.1,2.4-1.9,4.2c-0.9,1.9-1.6,3.3-2.2,4.8c-0.2,0.2-0.4,0.5-1,1.2
	c-0.9,1.6-1.5,2.7-2.1,3.9c-0.4,0.4-0.8,0.8-1.5,1.5c-1.1,1.4-1.8,2.4-2.5,3.4c-0.3,0.2-0.6,0.5-1.4,1c-1.3,0.2-2.1,0.1-2.8,0.1
	c-7.3-6.2-13.9-12.9-17-23c-0.5-1.3-0.9-2-1.3-2.7c-0.3-0.9-0.5-1.8-0.8-3.4C729.8,204.3,729.2,202.1,728.5,200z"/>
<path class="st5" d="M1033,556.4c1.8,3.7,3.4,7.1,5.6,12c2.9-6.2,5.2-11.1,7.5-15.9c0.7-1.5,1.1-3.4,2.2-4.4c1-1,2.9-1.4,4.3-1.4
	c0.7,0,2,1.7,2,2.6c0.2,8.8,0.1,17.6,0.1,26.8c-2.1,0-3.9,0-6.3,0c0-3.9,0-7.6,0-11.3c-0.5-0.1-0.9-0.3-1.4-0.4
	c-1,1.9-1.8,3.9-3,5.7c-1.6,2.2-3.2,5.5-5.4,6.1c-4.1,1.1-3.9-3.5-5.3-5.9c-1.1-1.9-2-3.9-3.1-5.8c-0.4,0.1-0.8,0.3-1.2,0.4
	c0,3.5,0,7.1,0,11.1c-2.4,0-4.2,0-6.2,0c0-9.7,0-19.1,0-28.8c3.5-1.3,6.1-1,7.4,3C1030.8,552.2,1031.9,554.1,1033,556.4z"/>
<path class="st6" d="M659,572.3c-3,1.5-5.7,3.4-8.6,3.8c-4,0.6-8.2,0.2-12.5,0.2c0-10.1,0-19.7,0-29.8c3.6,0,6.8-0.1,10.1,0
	c9.4,0.3,12.2,5.4,7.3,13.6C659.5,563,661.3,566.9,659,572.3 M649.7,562.8c-1.9,0-3.8,0-5.9,0c0,3.2,0,5.6,0,8.5
	c3.8-0.4,8.1,1.8,10.3-2.9C655.3,565.5,653.4,563.7,649.7,562.8 M646.2,551.5c-5,0.8-2.1,4-1.7,7.1c2.9-0.7,6.8-1.5,7.5-3.5
	C653,552,649.6,551.6,646.2,551.5z"/>
<path class="st5" d="M308.6,576.4c-2.9,0-5.4,0-8.2,0c0-10,0-19.6,0-29.5c4.7,0,9.5-0.6,14.1,0.2c6.1,1,7.2,6.3,3.2,13
	c0.8,0.7,1.7,1.4,2.5,2.3c4.5,5,2.3,12.1-4.2,13.5C313.7,576.2,311.4,576.2,308.6,576.4 M305.8,568.4c0.8,5.3,4.9,2.8,7.3,2.4
	c1.4-0.2,3.6-3.6,3.2-4.8c-1.7-4.9-6.1-3-10.1-3C306,564.6,305.9,566.1,305.8,568.4 M314,553.2c-2.5-0.7-5-1.4-8-2.3
	c0,3.1,0,4.9,0,7.2C309.7,557.7,314.1,560.1,314,553.2z"/>
<path class="st5" d="M488.5,572.2c-2.1-2.7-4.1-5.2-6-7.6c-5.9,2.3-3.3,7.3-4.5,11.3c-1.6,0-3.3,0-5.7,0c0-9.2-0.1-18.3,0.2-27.4
	c0-1,3.1-1.8,5.6-3.2c0.3,5.1,0.5,8.6,0.7,12.5c6.7-2.9,7.8-13.4,18-11c-3.2,3.6-5.8,6.9-8.7,9.9c-1.8,1.9-1.9,3.5-0.2,5.6
	c3.4,4.2,6.6,8.6,10,13.2C493.5,577.4,490.7,576,488.5,572.2z"/>
<path class="st5" d="M969.2,570.8c-1.4,0.8-2.8,1.4-3.2,2.4c-1.4,3.6-3.8,3.6-7.5,2.5c4.1-9.3,8.1-18.6,12.4-27.6
	c1.4-2.9,5.5-2.3,7,0.8c4,8.7,7.8,17.5,11.8,26.6c-3.3,1.3-5.7,1.4-7.4-2.3c-0.6-1.2-2.7-2.2-4.2-2.4
	C975.3,570.5,972.4,570.8,969.2,570.8 M977.1,560.1c-0.8-1.7-1.6-3.4-3.1-6.4c-2,4.7-3.4,8-5,11.7c3.8,0,6.8,0,10.1,0
	C978.4,563.6,977.9,562.3,977.1,560.1z"/>
<path class="st5" d="M357.5,568.6c2.9-6.6,5.6-12.8,8.6-18.9c0.7-1.3,2.5-3.1,3.7-3c1.5,0.1,3.5,1.6,4.2,3.1
	c4,8.4,7.6,16.9,11.5,25.7c-3.2,1.4-5.6,1.6-7.3-2.1c-0.5-1.2-2.3-2.3-3.7-2.4c-2.9-0.4-6-0.4-8.9,0c-1.4,0.2-3.3,1.2-3.7,2.3
	c-1.5,3.6-3.9,3.5-7.4,2.5C355.4,573.4,356.4,571.1,357.5,568.6 M374.2,563.2c-1.3-2.7-2.5-5.5-4.4-9.5c-2,4.8-3.4,8.2-5.3,12.7
	C368.6,564.9,372.2,568.3,374.2,563.2z"/>
<path class="st6" d="M694.3,576.3c-0.6-1-1.4-2.2-1.1-2.9c3.5-8.3,7.1-16.5,10.9-24.6c1.4-3.1,5.6-3.5,6.9-0.5
	c4.2,9,8.1,18.1,12.2,27.5c-3.4,0.9-5.8,1.1-7.4-2.4c-0.5-1.2-2.6-2.2-4.1-2.5c-2.4-0.4-5.1-0.5-7.4,0c-1.9,0.4-3.5,2.1-5.3,3.1
	C697.5,574.8,696.1,575.6,694.3,576.3 M712,563.3c-1.2-2.8-2.5-5.6-4.3-9.8c-2.1,4.9-3.6,8.3-5,11.8c0.4,0.5,0.7,1,1.1,1.5
	C706.5,565.9,709.4,565,712,563.3z"/>
<path class="st6" d="M547.8,576.3c-5.5,0-10.7,0-16.1,0c0-10,0-19.6,0-29.5c5.9,0,11.7,0,17.7,0c1.1,3.3,0.7,5.4-3.3,5.1
	c-1.2-0.1-2.3,0-3.5,0c-5.8,0-5.9,0.2-4.8,6c2.4,3,9.7-2.6,8.9,5.9c-3,0.2-5.8,0.4-8.5,0.5c-1.8,6.2-1.4,6.7,4.7,6.7
	c1.5,0,3-0.2,4.5,0.1c1,0.2,1.9,0.9,2.9,1.4C549.5,573.8,548.9,575,547.8,576.3z"/>
<path class="st7" d="M436.1,549.2c0.4,1.5,0.6,2.7,0.8,3.9c-1.3,0.1-2.7,0.4-4,0.3c-0.7-0.1-1.4-1.3-2-1.3c-2,0.1-3.9,0.5-5.9,0.8
	c0.9,1.7,1.3,3.9,2.7,4.9c2.2,1.6,5.2,2.3,7.5,3.8c3.1,1.9,4.5,4.9,3.5,8.6c-1,3.8-3.7,5.9-7.6,6.2c-5.4,0.4-10.9,0.6-13.5-6
	c1.9-2.6,3.6-3.3,6.2-0.4c1,1.1,3.3,1.7,4.9,1.6c1.3-0.1,3.3-1.5,3.6-2.6c0.3-1.1-0.9-3.1-2-3.9c-1.5-1.2-3.6-1.6-5.4-2.4
	c-5.5-2.5-7.8-6.6-6.2-10.9c1.5-4.2,7.1-6.6,12.2-5.1C432.8,546.9,434.3,548.1,436.1,549.2z"/>
<path class="st7" d="M1110.3,557.7c-1.7,8.8-8.7,8.2-15.2,9.1c-0.2,3.1-0.3,6-0.5,9.3c-1.8,0.1-3.4,0.1-5.8,0.3c0-5.1,0-9.9,0-14.6
	c0-4.8,0-9.6,0-14.4C1101.2,543.5,1109.6,547.5,1110.3,557.7 M1094.8,558.4c0.3,5.1,4.2,3.3,6.1,2.3c1.6-0.8,3.7-3.9,3.2-5.4
	c-1.4-4.6-5.3-3.7-9.4-3C1094.8,554.2,1094.8,555.8,1094.8,558.4z"/>
<path class="st5" d="M914.1,576.3c-7.7-1.4-12.2-5.9-13.2-12.7c-1-6.8,2-12.8,7.9-15.8c6.3-3.2,12.3-2.5,17,2
	c-1.1,2.8-2.8,3.5-5.8,2.3c-4.5-1.8-8.7-0.5-11.5,3.5c-2.6,3.8-2.4,8,0.2,11.7c2.9,4,7.1,5,11.5,3.2c3.2-1.3,4.6-0.1,5.7,2.6
	C922.9,576.9,918.7,576.3,914.1,576.3z"/>
<path class="st7" d="M590.6,565c0-4.5,0-8.4,0-12.1c-2.5-2.3-9.3,1.5-7.2-6.1c6.7,0,13.4,0,20.1,0c0.8,4.4,0.8,4.4-6.8,5.8
	c0,7.6,0,15.4,0,23.5c-2.2,0-3.9,0-6.1,0C590.6,572.3,590.6,568.9,590.6,565z"/>
<path class="st7" d="M825.6,572.4c-0.6,1.5-1.3,3.7-2.1,3.8c-5.1,0.3-10.2,0.2-15.6,0.2c0-10.1,0-19.7,0-29.6c1.9,0,3.6,0,5.7,0
	c0,8.1,0,15.8,0,23.6C817.8,571,821.6,571.5,825.6,572.4z"/>
<path class="st8" d="M762,558c0,4.5,0,8.4,0,12.4c4.2,0.6,8,1,11.8,1.7c0.2,0,0,2.4,0,3.9c-5.9,0-11.4,0-17.3,0c0-9.8,0-19.3,0-29.2
	c1.7,0,3.4,0,5.5,0C762,550.6,762,554.1,762,558z"/>
</svg>
