<?xml version="1.0" standalone="no"?>
<!DOCTYPE svg PUBLIC "-//W3C//DTD SVG 20010904//EN"
 "http://www.w3.org/TR/2001/REC-SVG-20010904/DTD/svg10.dtd">
<svg version="1.0" xmlns="http://www.w3.org/2000/svg"
 width="64.000000pt" height="64.000000pt" viewBox="0 0 64.000000 64.000000"
 preserveAspectRatio="xMidYMid meet">

<g transform="translate(0.000000,64.000000) scale(0.100000,-0.100000)"
fill="#f15d22" stroke="none">
<path d="M255 633 c-38 -9 -36 -21 10 -48 44 -26 47 -26 66 -9 10 9 19 28 19
41 0 20 -4 23 -37 22 -21 -1 -47 -3 -58 -6z"/>
<path d="M380 606 c0 -13 -9 -35 -20 -49 l-20 -25 24 -15 c20 -14 26 -14 42
-2 11 8 41 22 67 31 56 19 52 30 -18 63 -58 27 -75 27 -75 -3z"/>
<path d="M129 575 c-37 -28 -62 -56 -84 -96 l-14 -26 92 22 c83 19 157 48 157
60 0 5 -102 65 -111 65 -3 0 -21 -11 -40 -25z"/>
<path d="M482 515 c-65 -20 -75 -31 -55 -62 14 -22 22 -24 54 -19 45 7 84 -6
122 -42 l27 -26 0 23 c0 13 -14 50 -31 82 -35 65 -42 68 -117 44z"/>
<path d="M260 485 c-25 -13 -63 -27 -85 -31 -22 -3 -68 -15 -102 -25 -60 -19
-61 -20 -68 -60 -10 -57 2 -136 29 -187 l22 -43 22 48 c30 67 118 171 202 239
56 45 68 59 59 70 -15 18 -26 17 -79 -11z"/>
<path d="M315 411 c-123 -98 -225 -231 -225 -294 0 -35 110 -107 164 -107 29
0 42 29 81 190 32 129 47 170 71 195 16 15 15 18 -7 40 l-24 24 -60 -48z"/>
<path d="M492 402 c-18 -3 -22 -8 -16 -20 40 -97 51 -134 69 -245 l6 -38 20
25 c26 33 56 102 64 148 6 34 4 40 -37 81 -46 45 -67 55 -106 49z"/>
<path d="M415 350 c-9 -17 -29 -83 -45 -148 -16 -64 -36 -136 -44 -160 l-15
-42 29 0 c36 0 131 35 160 58 22 17 22 19 6 109 -16 92 -50 198 -66 208 -5 3
-16 -8 -25 -25z"/>
</g>
</svg>
