<?xml version="1.0" standalone="no"?>
<!DOCTYPE svg PUBLIC "-//W3C//DTD SVG 20010904//EN"
 "http://www.w3.org/TR/2001/REC-SVG-20010904/DTD/svg10.dtd">
<svg version="1.0" xmlns="http://www.w3.org/2000/svg"
 width="512.000000pt" height="512.000000pt" viewBox="0 0 512.000000 512.000000"
 preserveAspectRatio="xMidYMid meet">

<g transform="translate(0.000000,512.000000) scale(0.100000,-0.100000)"
fill="#000000" stroke="none">
<path d="M1503 5000 c-193 -65 -364 -126 -381 -135 -16 -10 -37 -31 -47 -48
-33 -56 -35 -91 -9 -195 63 -260 71 -543 20 -717 -40 -134 -89 -218 -176 -306
-63 -63 -93 -84 -175 -124 -55 -26 -115 -54 -134 -63 -19 -9 -46 -34 -60 -56
l-26 -40 -3 -1540 c-3 -1715 -7 -1608 65 -1687 20 -22 55 -50 77 -62 l41 -22
1865 0 1865 0 41 22 c22 12 57 40 77 62 72 79 68 -28 65 1687 l-3 1540 -26 40
c-14 21 -37 44 -50 50 -13 7 -73 35 -133 64 -93 44 -120 63 -187 129 -63 64
-85 95 -122 172 -63 131 -78 198 -84 374 -6 163 10 311 48 460 11 44 20 99 20
122 1 55 -33 115 -80 141 -65 35 -740 254 -765 248 -13 -3 -47 -21 -75 -41
-250 -167 -935 -165 -1189 5 -33 22 -70 40 -83 39 -13 0 -182 -54 -376 -119z
m295 -202 c25 -240 101 -432 223 -562 155 -166 339 -236 587 -223 205 11 329
64 468 202 76 76 97 105 137 185 55 110 91 244 108 397 7 59 14 110 15 112 2
2 224 -68 231 -74 2 -1 -8 -46 -22 -100 -43 -170 -58 -317 -52 -530 10 -359
82 -614 239 -842 137 -200 378 -379 631 -468 l77 -28 -2 -1324 -3 -1325 -28
-24 -28 -24 -1819 0 -1819 0 -28 24 -28 24 -3 1325 -2 1325 52 17 c97 31 292
132 378 195 272 201 427 466 496 845 9 51 18 173 21 280 6 213 -9 360 -52 530
-14 54 -24 99 -22 100 5 5 213 73 223 74 6 1 15 -45 22 -111z m259 53 c167
-56 244 -66 508 -66 215 0 251 2 344 23 57 13 136 35 174 49 38 13 71 23 73
21 7 -8 -16 -165 -36 -244 -74 -289 -277 -454 -560 -454 -305 0 -510 185 -573
515 -19 96 -30 185 -23 185 3 0 44 -13 93 -29z m-654 -128 c32 -116 49 -242
54 -408 11 -351 -55 -625 -204 -847 -102 -151 -291 -308 -456 -377 -119 -49
-112 -53 -112 68 l0 104 67 28 c119 51 191 100 283 193 100 100 163 206 205
341 65 211 66 482 4 779 -14 65 -24 119 -22 121 4 3 151 53 159 54 4 1 14 -25
22 -56z m2422 27 c39 -12 71 -24 73 -25 2 -2 -8 -56 -22 -121 -70 -333 -58
-637 35 -859 87 -209 246 -366 461 -453 l68 -27 0 -108 c0 -125 12 -119 -123
-61 -290 123 -524 400 -603 711 -71 282 -70 653 3 916 9 33 21 56 27 54 6 -2
43 -14 81 -27z"/>
<path d="M1905 3555 c-34 -33 -34 -83 1 -116 23 -22 35 -24 132 -27 119 -3
149 6 170 52 16 32 9 69 -18 96 -18 18 -34 20 -140 20 -115 0 -122 -1 -145
-25z"/>
<path d="M2415 3555 c-32 -31 -32 -75 -1 -112 24 -28 25 -28 146 -28 121 0
122 0 146 28 31 37 31 81 -1 112 -23 24 -30 25 -145 25 -115 0 -122 -1 -145
-25z"/>
<path d="M2930 3560 c-27 -27 -34 -64 -18 -96 21 -46 51 -55 170 -52 97 3 109
5 132 27 35 33 35 83 1 116 -23 24 -30 25 -145 25 -106 0 -122 -2 -140 -20z"/>
<path d="M2006 3046 c-68 -29 -147 -101 -176 -161 -25 -52 -44 -140 -36 -171
17 -66 105 -89 145 -38 12 15 21 37 21 49 0 66 56 146 118 166 79 26 178 -15
208 -87 18 -42 18 -115 0 -157 -19 -47 -98 -116 -201 -176 -218 -129 -275
-189 -290 -307 -6 -45 -4 -53 20 -82 l27 -32 288 0 c276 0 288 1 314 21 32 26
36 84 7 120 -19 24 -23 24 -228 29 l-208 5 55 35 c30 20 95 60 144 90 111 69
185 141 222 217 40 80 46 201 14 285 -28 74 -96 150 -167 184 -82 40 -195 44
-277 10z"/>
<path d="M2883 3056 c-133 -42 -233 -175 -233 -310 0 -65 27 -96 81 -96 47 0
79 34 86 92 8 58 26 92 67 123 63 48 152 46 211 -6 44 -39 70 -105 60 -156
-16 -92 -74 -148 -266 -261 -166 -98 -239 -189 -239 -299 0 -44 4 -55 26 -72
26 -20 38 -21 314 -21 l288 0 27 32 c32 38 29 81 -11 116 -24 21 -32 22 -227
22 -235 0 -231 -9 -40 106 187 112 256 187 289 314 18 72 15 136 -13 215 -24
72 -119 166 -196 194 -66 24 -159 27 -224 7z"/>
</g>
</svg>
