<?xml version="1.0" standalone="no"?>
<!DOCTYPE svg PUBLIC "-//W3C//DTD SVG 20010904//EN"
 "http://www.w3.org/TR/2001/REC-SVG-20010904/DTD/svg10.dtd">
<svg version="1.0" xmlns="http://www.w3.org/2000/svg"
 width="512.000000pt" height="512.000000pt" viewBox="0 0 512.000000 512.000000"
 preserveAspectRatio="xMidYMid meet">

<g transform="translate(0.000000,512.000000) scale(0.100000,-0.100000)"
fill="#000000" stroke="none">
<path d="M2099 5106 c-104 -22 -239 -87 -305 -147 -21 -19 -22 -19 -95 16
-279 132 -589 52 -748 -195 -41 -64 -111 -242 -157 -400 -39 -139 -54 -166
-138 -264 -82 -96 -94 -128 -56 -166 28 -28 48 -28 200 -3 266 43 549 160 699
288 52 45 71 49 71 17 0 -27 63 -163 99 -215 18 -26 60 -75 94 -108 l62 -60
-35 -26 c-19 -15 -74 -65 -122 -112 -190 -183 -310 -407 -359 -670 -17 -95
-19 -152 -19 -625 l0 -521 -602 -602 c-529 -529 -601 -605 -601 -631 0 -40 50
-96 380 -424 219 -219 263 -258 288 -258 39 0 132 95 170 175 51 107 45 274
-13 363 -15 23 -7 32 436 475 398 399 452 456 452 483 0 40 -36 74 -78 74 -26
0 -47 -14 -113 -77 l-80 -77 -129 129 -129 129 79 82 c44 45 81 83 82 85 1 2
5 116 8 254 l5 249 540 52 540 52 202 -201 203 -202 -182 -182 -183 -183 -136
136 -136 136 83 81 c46 46 86 94 89 108 9 38 -31 82 -74 81 -37 -1 -105 -59
-348 -297 -146 -143 -156 -159 -137 -210 9 -23 61 -47 87 -39 12 3 59 43 105
87 l82 82 190 -190 190 -190 -250 -250 c-137 -137 -253 -262 -259 -276 -7 -19
-6 -34 5 -55 8 -16 153 -167 322 -337 257 -257 311 -307 335 -307 42 0 129 87
170 169 27 56 33 79 35 153 4 89 -12 164 -46 216 -15 23 -9 29 270 310 311
313 326 334 336 447 5 74 -10 140 -46 200 -13 22 -199 216 -412 430 l-389 390
-2 285 c-2 198 1 298 10 327 23 81 109 167 192 192 21 7 128 11 258 11 245 0
285 7 297 54 11 45 -4 76 -44 93 -31 13 -74 15 -272 10 -289 -6 -312 -12 -465
-126 -33 -25 -56 -32 -130 -42 -292 -38 -486 97 -528 366 l-7 41 63 36 c130
75 271 120 432 139 57 6 382 9 886 7 l796 -3 49 -30 c59 -36 104 -114 104
-180 0 -59 -42 -136 -92 -171 l-41 -29 -250 -5 c-247 -5 -249 -5 -268 -29 -26
-31 -25 -83 2 -107 19 -17 41 -19 221 -22 110 -2 229 1 264 7 125 19 222 90
276 199 30 60 33 75 33 157 0 78 -4 98 -29 152 -30 66 -97 137 -157 168 -83
43 -105 45 -758 45 -590 0 -623 1 -616 18 103 239 95 461 -22 661 -49 83 -161
195 -244 244 -140 82 -336 115 -490 83z m305 -166 c33 -11 84 -33 111 -51 51
-32 155 -127 155 -142 0 -12 -96 -54 -170 -73 -99 -27 -270 -24 -393 5 -150
36 -212 28 -360 -47 -13 -7 13 49 45 96 87 127 226 212 383 236 51 7 165 -5
229 -24z m-854 -72 c54 -15 110 -40 110 -50 0 -4 -13 -32 -29 -61 -16 -28 -43
-94 -60 -145 -16 -51 -44 -116 -61 -143 -89 -138 -285 -254 -564 -334 -48 -14
-90 -25 -93 -25 -2 0 7 19 21 43 13 23 43 103 65 178 81 270 133 382 213 455
97 88 259 121 398 82z m1221 -438 c1 -109 -20 -190 -71 -274 l-32 -53 -142 -6
c-191 -8 -330 -39 -487 -107 l-70 -31 -55 41 c-68 51 -129 128 -164 205 -43
96 -45 110 -14 173 39 80 99 136 168 158 57 18 59 18 179 -6 227 -46 453 -27
607 50 l55 28 13 -42 c7 -22 13 -84 13 -136z m-956 -812 c12 -56 70 -170 113
-225 41 -52 123 -113 194 -145 64 -29 192 -50 284 -47 82 4 85 3 77 -16 -4
-11 -8 -148 -8 -305 l0 -285 -485 -47 c-267 -25 -500 -47 -517 -47 l-33 -1 0
218 c0 342 42 512 179 720 56 84 165 212 181 212 5 0 12 -15 15 -32z m1363
-1822 c142 -145 161 -178 148 -260 -10 -61 -31 -87 -211 -266 l-165 -165 -132
132 -131 131 26 32 c41 48 39 77 -5 134 l-31 38 179 179 c98 98 182 179 185
179 3 0 65 -60 137 -134z m-1885 -364 l127 -127 -215 -215 -215 -215 -132 133
-133 132 215 209 c118 116 217 210 220 210 3 1 63 -56 133 -127z m1467 -518
c-45 -46 -80 -90 -80 -101 0 -11 19 -47 41 -81 35 -52 42 -71 46 -127 4 -47 1
-77 -11 -109 -34 -89 -24 -95 -286 174 l-238 245 171 172 172 173 132 -132
132 -132 -79 -82z m-2005 -14 l129 -129 -82 -85 c-95 -99 -99 -115 -48 -185
45 -62 60 -112 53 -182 -5 -59 -34 -124 -54 -124 -6 0 -118 109 -249 243
l-237 243 174 175 c95 96 176 174 179 174 3 0 63 -58 135 -130z"/>
<path d="M2494 4445 c-39 -16 -44 -30 -44 -114 0 -58 3 -71 23 -89 33 -31 80
-29 106 4 17 21 21 41 21 93 -1 38 -6 73 -14 83 -21 28 -58 38 -92 23z"/>
<path d="M4268 3218 c-155 -14 -288 -78 -408 -198 -120 -120 -181 -245 -200
-410 -24 -212 47 -410 205 -566 134 -134 289 -197 480 -197 121 0 200 18 315
75 68 33 102 58 170 127 142 143 204 293 202 491 -1 191 -65 345 -201 481
-152 152 -339 217 -563 197z m37 -288 c71 -229 277 -413 517 -460 l57 -11 -6
-32 c-9 -48 -38 -121 -68 -173 l-27 -47 -379 379 -378 378 42 28 c23 15 69 37
102 47 95 31 99 31 108 -4 5 -16 19 -64 32 -105z m282 83 c132 -64 240 -197
278 -343 8 -30 13 -55 12 -57 -2 -1 -25 4 -52 11 -171 45 -320 182 -374 344
-31 90 -29 96 22 88 23 -4 75 -23 114 -43z m-288 -537 l374 -374 -47 -27 c-52
-30 -125 -59 -173 -68 -31 -6 -32 -6 -42 46 -44 212 -179 390 -364 481 -51 25
-114 50 -142 56 -101 21 -95 17 -88 53 13 71 80 207 101 207 4 0 175 -168 381
-374z m-329 -73 c137 -66 245 -198 283 -345 l15 -57 -32 6 c-45 8 -135 46
-183 76 -103 65 -195 193 -228 316 l-14 53 42 -6 c23 -3 76 -23 117 -43z"/>
</g>
</svg>
