<?xml version="1.0" standalone="no"?>
<!DOCTYPE svg PUBLIC "-//W3C//DTD SVG 20010904//EN">
<svg version="1.0" xmlns="http://www.w3.org/2000/svg"
 width="1282.000000pt" height="734.000000pt" viewBox="0 0 1282.000000 734.000000"
 preserveAspectRatio="xMidYMid meet">

<g transform="translate(0.000000,734.000000) scale(0.100000,-0.100000)"
fill="#000000" stroke="none">
<path d="M6220 6014 c-66 -17 -165 -63 -200 -91 l-24 -21 45 -50 c88 -97 144
-232 155 -373 l7 -79 73 0 74 0 0 315 0 315 -37 -1 c-21 0 -63 -7 -93 -15z"/>
<path d="M6400 5715 l0 -315 75 0 75 0 0 58 c0 126 58 277 150 389 l50 62 -41
27 c-79 50 -210 94 -278 94 l-31 0 0 -315z"/>
<path d="M5901 5814 c-83 -91 -146 -240 -153 -364 l-3 -45 203 -3 202 -2 1 22
c6 150 -44 290 -142 401 -22 26 -44 47 -49 47 -4 0 -31 -25 -59 -56z"/>
<path d="M6748 5833 c-87 -90 -146 -231 -151 -358 l-2 -70 203 -3 202 -2 0 42
c-1 115 -66 276 -151 372 -28 31 -54 56 -58 56 -4 0 -23 -17 -43 -37z"/>
<path d="M5750 5334 c0 -104 120 -353 171 -354 21 0 118 103 153 162 28 48 59
129 71 186 l7 32 -201 0 -201 0 0 -26z"/>
<path d="M6182 5301 c-20 -96 -85 -214 -164 -296 l-69 -73 78 -51 c86 -57 208
-101 279 -101 l44 0 0 290 0 290 -78 0 -78 0 -12 -59z"/>
<path d="M6400 5070 l0 -290 38 0 c87 0 246 63 322 128 l35 30 -42 37 c-85 72
-175 236 -190 341 l-6 44 -78 0 -79 0 0 -290z"/>
<path d="M6600 5346 c0 -33 42 -146 75 -201 39 -64 131 -165 152 -165 35 0
132 172 158 281 25 109 43 99 -185 99 -164 0 -200 -2 -200 -14z"/>
<path d="M4306 4266 l-15 -36 -63 8 c-111 13 -648 8 -696 -6 -57 -17 -110 -66
-138 -127 l-24 -50 0 -837 c0 -824 0 -839 21 -901 20 -60 20 -66 5 -95 -24
-47 -20 -55 37 -80 67 -28 76 -28 88 6 l9 27 344 -3 c228 -2 357 0 384 8 56
15 122 67 152 120 l25 45 3 845 c2 749 1 850 -13 895 -16 48 -15 53 4 99 12
26 21 51 21 55 0 7 -27 20 -117 58 -7 3 -18 -11 -27 -31z m-288 -398 c7 -7 12
-42 12 -87 0 -73 -5 -89 -116 -381 -64 -168 -121 -309 -125 -314 -5 -6 -9 164
-9 385 0 218 3 399 7 402 12 13 218 8 231 -5z m1 -1325 c-9 -10 -37 -13 -123
-11 l-111 3 -3 65 c-3 62 3 79 109 355 61 160 116 299 123 310 8 15 12 -65 14
-344 2 -265 -1 -367 -9 -378z"/>
<path d="M2170 3205 l0 -1035 190 0 190 0 0 412 c0 226 2 409 5 407 2 -3 50
-180 105 -395 55 -214 103 -397 106 -406 5 -16 24 -18 220 -18 l214 0 0 1035
0 1035 -215 0 -215 0 0 -397 c0 -224 -4 -391 -9 -383 -5 8 -48 170 -95 360
-48 190 -92 362 -97 383 l-10 37 -194 0 -195 0 0 -1035z"/>
<path d="M4970 3205 l0 -1035 387 2 386 3 34 175 c18 96 33 181 33 188 0 9
-48 12 -205 12 l-205 0 0 845 0 845 -215 0 -215 0 0 -1035z"/>
<path d="M5940 3205 l0 -1035 210 0 210 0 0 1035 0 1035 -210 0 -210 0 0
-1035z"/>
<path d="M6530 3205 l0 -1035 200 0 200 0 0 472 c0 276 4 468 9 463 5 -6 61
-179 126 -385 64 -206 120 -378 124 -383 4 -4 63 170 132 385 l124 393 3 -472
2 -473 205 0 205 0 0 1035 0 1035 -222 -2 -222 -3 -72 -280 c-130 -505 -147
-565 -153 -565 -3 0 -56 191 -116 425 l-110 425 -217 0 -218 0 0 -1035z"/>
<path d="M8030 3205 l0 -1035 205 0 205 0 0 1035 0 1035 -205 0 -205 0 0
-1035z"/>
<path d="M8617 4067 c-26 -94 -50 -182 -54 -194 l-5 -23 136 0 136 0 0 -840 0
-840 215 0 215 0 0 840 0 840 135 0 c101 0 135 3 135 13 0 6 -22 93 -49 192
l-48 180 -384 2 -384 3 -48 -173z"/>
<path d="M9827 4229 c-81 -19 -122 -54 -159 -134 -23 -49 -23 -57 -26 -448 -3
-422 1 -479 41 -539 42 -62 79 -72 285 -76 l183 -4 10 -26 c12 -31 8 -426 -4
-439 -5 -4 -115 -10 -246 -13 l-237 -5 35 -187 36 -188 305 0 c355 0 390 5
452 71 66 69 68 88 68 570 0 279 -4 438 -11 456 -6 15 -20 39 -32 51 -42 45
-80 53 -271 58 -114 2 -183 8 -192 15 -19 15 -21 428 -2 447 9 9 79 12 255 12
188 0 243 3 243 13 0 6 -14 94 -32 195 l-32 182 -315 -1 c-174 -1 -333 -5
-354 -10z"/>
<path d="M2310 1721 l0 -151 63 0 c116 0 157 23 157 87 0 30 -31 73 -52 73 -6
0 -2 10 10 23 27 29 28 57 3 88 -17 21 -30 24 -100 27 l-81 4 0 -151z m124 93
c26 -10 20 -53 -8 -60 -43 -10 -61 -1 -64 34 -3 30 -1 32 27 32 16 0 36 -3 45
-6z m17 -114 c21 -12 25 -50 7 -68 -7 -7 -31 -12 -55 -12 l-43 0 0 38 c0 21 3
42 7 45 10 11 62 8 84 -3z"/>
<path d="M2942 1778 c-22 -51 -52 -119 -66 -150 l-26 -58 30 0 c22 0 32 7 42
28 12 25 18 27 85 30 71 3 72 3 88 -28 11 -22 23 -30 41 -30 31 0 34 -13 -44
167 -52 121 -59 132 -83 133 -23 0 -30 -10 -67 -92z m97 -50 c11 -26 17 -49
13 -51 -10 -5 -82 -1 -87 5 -3 3 5 28 16 57 12 29 26 48 30 44 4 -4 17 -29 28
-55z"/>
<path d="M3522 1847 c-23 -24 -29 -71 -12 -97 5 -8 35 -28 67 -45 47 -24 58
-35 58 -55 0 -22 -5 -25 -37 -28 -26 -2 -41 2 -55 17 -17 18 -22 19 -37 8 -16
-11 -17 -17 -7 -36 15 -27 50 -41 102 -41 31 0 47 7 70 29 52 52 33 104 -49
139 -56 24 -77 45 -68 67 7 19 55 20 82 0 18 -12 24 -12 40 -1 17 13 16 15
-11 40 -38 35 -111 37 -143 3z"/>
<path d="M4040 1720 l0 -150 25 0 c23 0 25 4 25 43 0 32 6 49 21 63 21 19 21
19 52 -21 67 -83 71 -87 100 -83 l28 3 -61 79 c-33 43 -60 81 -60 85 0 3 25
34 56 69 l56 62 -35 0 c-30 0 -42 -8 -87 -60 -29 -33 -56 -60 -61 -60 -5 0 -9
27 -9 60 0 57 -1 60 -25 60 l-25 0 0 -150z"/>
<path d="M4630 1720 l0 -150 90 0 c89 0 90 0 90 25 0 23 -4 24 -62 27 -63 3
-63 3 -66 36 -3 31 -2 32 32 32 19 0 41 3 50 6 17 7 22 43 6 45 -5 1 -19 3
-30 4 -11 1 -29 3 -40 4 -16 1 -20 8 -20 36 l0 35 65 0 c63 0 65 1 65 25 0 25
-1 25 -90 25 l-90 0 0 -150z"/>
<path d="M5140 1845 c0 -22 4 -25 40 -25 l40 0 0 -126 0 -125 28 3 27 3 3 123
3 122 34 0 c31 0 35 3 35 25 l0 25 -105 0 -105 0 0 -25z"/>
<path d="M5690 1720 l0 -150 69 0 c78 0 127 14 141 40 18 33 12 80 -14 103
-21 20 -22 25 -10 42 23 31 17 71 -12 94 -22 17 -41 21 -100 21 l-74 0 0 -150z
m140 81 c13 -26 -11 -51 -51 -51 -27 0 -29 3 -29 35 0 33 2 35 35 35 24 0 37
-6 45 -19z m8 -107 c44 -30 15 -74 -49 -74 l-39 0 0 45 c0 44 1 45 33 45 18 0
43 -7 55 -16z"/>
<path d="M6302 1728 c-34 -79 -62 -146 -62 -150 0 -5 11 -8 25 -8 17 0 29 9
40 30 15 29 18 30 85 30 67 0 70 -1 85 -30 11 -21 23 -30 40 -30 14 0 25 3 25
8 0 4 -28 71 -62 150 -57 129 -65 142 -88 142 -23 0 -31 -13 -88 -142z m117 6
c12 -25 18 -50 16 -55 -5 -7 -84 -2 -93 6 -5 5 40 95 48 95 5 0 18 -21 29 -46z"/>
<path d="M6880 1720 l0 -150 85 0 c84 0 85 0 85 25 0 22 -4 24 -57 27 l-58 3
-3 123 -3 122 -24 0 -25 0 0 -150z"/>
<path d="M7390 1720 l0 -150 90 0 c89 0 90 0 90 25 0 24 -3 25 -60 25 l-60 0
0 125 0 125 -30 0 -30 0 0 -150z"/>
<path d="M8403 1854 c-53 -27 -76 -74 -71 -144 5 -64 26 -98 80 -126 36 -19
102 -18 139 2 29 15 30 16 14 34 -13 15 -22 17 -36 10 -32 -17 -76 -11 -107
15 -36 31 -46 66 -32 111 16 47 58 68 120 60 34 -5 50 -2 59 8 31 37 -104 62
-166 30z"/>
<path d="M8992 1778 c-22 -51 -52 -119 -66 -150 l-26 -58 30 0 c23 0 33 7 45
30 15 29 18 30 85 30 67 0 70 -1 85 -30 11 -21 23 -30 40 -30 14 0 25 3 25 8
0 4 -28 71 -62 149 -58 131 -65 143 -89 143 -23 0 -30 -10 -67 -92z m93 -40
c13 -29 23 -53 22 -55 -2 -1 -19 -5 -38 -8 -56 -8 -63 3 -38 63 12 29 24 52
26 52 2 0 15 -23 28 -52z"/>
<path d="M9550 1720 l0 -150 25 0 c24 0 25 2 25 70 0 39 4 70 9 70 4 0 23 -32
41 -71 28 -62 35 -70 57 -67 20 2 31 16 56 75 17 39 34 70 39 67 4 -3 8 -36 8
-75 0 -67 1 -69 25 -69 l25 0 0 150 0 150 -25 0 c-23 0 -32 -12 -75 -105 -27
-58 -52 -105 -55 -105 -3 0 -28 47 -55 105 -43 93 -52 105 -75 105 l-25 0 0
-150z"/>
<path d="M10210 1720 l0 -151 28 3 c25 3 27 7 30 49 l3 47 50 6 c67 9 99 40
99 95 0 28 -7 48 -24 68 -22 25 -31 28 -105 31 l-81 4 0 -152z m140 80 c11
-11 20 -24 20 -30 0 -21 -41 -50 -70 -50 -29 0 -30 1 -30 50 0 49 1 50 30 50
17 0 39 -9 50 -20z"/>
</g>
</svg>
