<?xml version="1.0" encoding="utf-8"?>
<!-- Generator: Adobe Illustrator 28.0.0, SVG Export Plug-In . SVG Version: 6.00 Build 0)  -->
<svg version="1.1" id="Layer_1" xmlns="http://www.w3.org/2000/svg" xmlns:xlink="http://www.w3.org/1999/xlink" x="0px" y="0px"
	 viewBox="0 0 1417.3 448" style="enable-background:new 0 0 1417.3 448;" xml:space="preserve">
<style type="text/css">
	.st0{fill:#FFFFFF;}
	.st1{fill:#FFFFFF;}
	.st2{fill:#FFFFFF;}
	.st3{fill:#FFFFFF;}
	.st4{fill:#FFFFFF;}
	.st5{fill:#FFFFFF;}
	.st6{fill:#FFFFFF;}
	.st7{fill:#FFFFFF;}
	.st8{fill:#FFFFFF;}
	.st9{fill:#FFFFFF;}
</style>
<path class="st0" d="M1050.9,423.8c1.3-2.8,2-6.3,7-4.7c0.5,8.6,0.7,16.7,0.5,24.8c0,1.4-1.4,2.7-2.2,4c-0.8-1.3-2.2-2.5-2.3-3.9
	c-0.3-3.4-0.1-6.8-0.1-10.2c-0.5-0.1-1-0.2-1.5-0.3c-0.4,1-0.9,2-1.5,3.3c-2,4.2-3.8,8.2-5.6,12.1c-1.1,0-2.1,0-3.7-0.3
	c-2.4-4.1-4.3-7.9-6.1-12.1c-0.5-1.1-1-1.8-2.1-3.3c0,1.9,0,2.8-0.1,4.2c0,2.8,0,5.2-0.2,7.9c-0.7,4.2-3.6,2.3-5.6,2.5
	c0-9.5,0-18.9,0-28.6c3.6-1.5,5.8-0.7,7.3,3.1c2,4.9,4.4,9.7,6.8,15.2c0.7,1.1,1.2,1.7,1.7,2.2c0.4-0.7,0.9-1.5,1.3-2.2
	c1.3-2.8,2.6-5.6,4.4-8.8C1049.9,426.7,1050.4,425.2,1050.9,423.8z"/>
<path class="st1" d="M326.5,443.1c-1.6,1.5-3.3,2.9-5.6,4.4c-1.7,0.5-2.7,1-3.8,1.4c-3.7,0-7.4,0-11.5,0c-0.5-9.9-0.5-19.8-0.5-29.8
	c8.1-2.3,15.5-0.9,19.1,4.8c0.1,1.9,0.1,3.1,0.2,4.2c-0.8,1.2-1.7,2.3-2.4,3.4c1.5,1.9,3,3.7,4.4,6.4
	C326.5,440.1,326.5,441.6,326.5,443.1 M311.8,443.3c1.8,0,3.9,0.4,5.4-0.2c1.6-0.7,3.8-2.7,3.6-3.8c-0.2-1.6-2.1-3.8-3.7-4.3
	C310.7,433.2,309.1,435.4,311.8,443.3 M311.9,430.2c3-0.1,7.4,0.9,7-3.6c-0.4-4.1-4.6-3.2-7.6-2.8c-0.3,0-0.5,0.4-1.3,0.9
	C310.3,426.2,310.7,428.1,311.9,430.2z"/>
<path class="st1" d="M359.6,449c2.7-7.7,5.6-15.5,9.1-23c1.3-2.8,0.9-7.6,5.9-7.5c5,0,4.5,4.8,5.8,7.6c3.3,7.2,5.9,14.7,8.8,22.5
	c-1.4,0.4-2.8,0.4-4.6,0c-1.5-4.7-4-6.5-8.6-6c-4.5,0.5-9.7-1.3-11.4,5.2c-0.1,0.5-0.9,0.8-1.3,1.2C362.1,449,361,449,359.6,449
	 M370.2,435.1c0.6,1,1.1,2.6,1.9,2.7c2.2,0.4,4.5,0.1,7.8,0.1c-1.8-4.2-3.3-7.6-5.3-12.2C372.9,429.4,371.7,431.9,370.2,435.1z"/>
<path class="st2" d="M536.6,449c-0.5-9.9-0.5-19.9-0.5-30.2c5.9,0,11.6,0,17.6,0c1.2,3.4,0.7,5.3-3.5,5.1c-2.6-0.1-5.3,0-8.2,0
	c0,2.4,0,4.3,0,7c2,0,4-0.3,5.9,0.1c1.2,0.3,2.3,1.6,3.4,2.4c-1.1,0.9-2,2.3-3.2,2.6c-1.8,0.4-3.9,0.1-6.1,0.1c0,2.6,0,4.5,0,7
	c3.2,0,6.2,0,9.1,0c4.6,0,4.7,2.1,2.2,5.6C547.8,449,542.5,449,536.6,449z"/>
<path class="st1" d="M971,429c1.3-2.7,2.4-5.5,4-8c0.7-1.2,2.4-2.2,3.7-2.4c1.1-0.1,2.9,1,3.4,2c4,8.7,7.8,17.6,11.6,26.4
	c0.1,0.3-0.2,0.8-0.5,1.6c-1.5,0.3-2.9,0.3-4.6-0.1c-1.2-4.9-3.9-6.6-8.5-6c-2.1,0.3-4.3-0.1-6.4,0.1c-1.1,0.1-2.9,0.9-3.1,1.7
	c-1.3,4.1-4.1,4.1-7.4,3.5c0.7-1.7,1.3-3.5,2.3-5.8c0.7-1.8,1.1-3,1.5-4.2c0.9-1.8,1.8-3.7,3-6C970.5,430.6,970.8,429.8,971,429
	 M976,431.3c-0.8,1.9-1.6,3.9-2.5,6.3c3.7,0,6.7,0,10.4,0c-1.8-3.9-3.2-7.3-5.1-11.5C977.6,428.3,976.9,429.5,976,431.3z"/>
<path class="st2" d="M726.6,444.8c0.2,0.6,0.4,1.1,0.5,2.3c-2.1,0.2-5.4,0.3-5.8-0.8c-1.4-3.7-4-3.7-7.1-3.6c-4.8,0-9.9-1.1-12.3,5
	c-0.2,0.6-1.2,0.9-1.8,1.4c-0.8,0-1.5,0-2.6,0c0.5-2.9,1.3-6,2.4-8.8c2.4-5.8,4.9-11.6,7.7-17.2c0.9-1.8,3.2-4.5,4.2-4.2
	c1.9,0.4,3.3,2.8,4.8,4.4c0.5,0.6,0.7,1.5,1.3,2.8c0.6,1.3,1.1,2.1,1.5,2.8c1.8,4.2,3.6,8.4,5.6,13.2
	C725.8,443.3,726.2,444,726.6,444.8 M715.6,433.2c-1-2.1-2-4.2-3.5-7.5c-2,4.8-3.5,8.2-5.3,12.4c2.8,0,4.4,0,6,0
	c1.3,0,2.6-0.2,4.4-0.3C716.6,436.3,716.3,435.1,715.6,433.2z"/>
<path class="st1" d="M428.6,449c-2.8-1.7-5.2-3.4-7.5-5.1c2.8-3.7,4.3-5,7.1-2.3c1.3,1.2,3.5,1.9,5.3,1.9c1.3,0,3.3-1.4,3.6-2.6
	c0.3-1.1-0.9-3.1-1.9-4c-1.4-1.1-3.3-1.5-5-2.2c-6-2.6-8.5-7.1-6.5-11.6c2.1-4.6,9.3-6.6,14.3-3.7c1.8,1,3.1,2.7,4.7,4.1
	c-0.2,0.6-0.3,1.3-0.5,1.9c-1.8-0.2-3.6-0.3-5.4-0.7c-1.4-0.3-2.8-1.4-4.1-1.3c-1.2,0.1-2.8,1.2-3.3,2.3c-0.3,0.7,0.6,2.5,1.5,3.2
	c1.4,1.1,3.2,1.6,4.9,2.3c3.9,1.7,7.6,3.7,7.8,8.7c0.2,4.9-3.2,6.9-7.3,8.7C433.8,449,431.4,449,428.6,449z"/>
<path class="st1" d="M916.6,449c-3.3-2.5-6.7-4.6-8.9-7.5c-4.3-5.8-2.9-14.7,2.5-19.5c5.8-5.1,13.9-5.3,20.2-0.3
	c-1.1,2.5-2.3,3.9-5.5,2.6c-4.7-1.9-9-0.7-11.9,3.6c-2.5,3.8-2.3,8,0.4,11.7c2.9,4,7,4.4,11.6,3.2c1.7-0.4,3.8,0.4,5.6,0.6
	c0.1,0.8,0.1,1.5,0.2,2.3c-2.1,0.9-4.3,1.8-6.5,3.1C921.8,449,919.4,449,916.6,449z"/>
<path class="st0" d="M761.6,449c-0.5-9.9-0.5-19.8-0.5-30.2c1.6,0,3.2,0,5.3,0c0,8,0,15.7,0,24.3c3,0,5.5,0,8.1,0
	c4.6,0.1,5,0.9,2.7,5.6C772.1,449,767.1,449,761.6,449z"/>
<path class="st3" d="M801.6,232.8c0.1-0.4,0.2-0.8,0.7-1.6c0.3-1.1,0.4-1.7,0.4-2.3c0.1-0.4,0.2-0.8,0.7-1.7
	c3-11.4,5.7-22.4,8.3-33.3c0.1-0.4,0.2-0.8,0.7-1.7c1-3.5,1.6-6.4,2.3-9.3c4.3-0.2,8.6-0.6,12.9-0.6c10.2-0.1,20.3,0,30.8,0
	c0,68.8,0,137.4,0,206.3c-1.3,0.2-2.6,0.4-3.8,0.4c-10.5,0-21-0.1-31.5,0.1c-3.8,0.1-4.7-1.2-4.7-4.9c0.1-27.2,0.1-54.3,0.1-81.5
	c0-2,0-4,0-6c-0.5-0.1-1-0.2-1.4-0.4c-8,25.2-16.1,50.4-24.1,75.5c-0.4,0.1-0.9,0.2-1.3,0.2c-8-25.3-16-50.6-23.9-75.9
	c-0.4,0.1-0.9,0.1-1.3,0.2c0,30.6,0,61.3,0,92.2c-13.6,0-26.5,0-39.9,0c0-68.6,0-137.2,0-206.4c13.8,0,27.7,0,42.2,0.4
	c4,13.6,7.4,26.8,10.9,39.9c2.8,10.5,5.8,21,8.7,31.6c0.1,0.4,0.2,0.8,0.2,1.8c0.3,1.1,0.6,1.7,0.8,2.2c0.1,0.4,0.2,0.8,0.2,1.8
	c0.6,3.1,1.3,5.6,2,8c0.6-0.1,1.1-0.1,1.7-0.2c0.5-2.6,0.9-5.3,1.4-7.9c0.1-0.4,0.2-0.8,0.7-1.7c0.7-2.4,1-4.4,1.4-6.3
	c0.1-0.4,0.2-0.8,0.7-1.7C799,243.9,800.3,238.3,801.6,232.8z"/>
<path class="st3" d="M517.6,326c-0.1,13,0.2,25.5-0.4,38c-0.7,15.3-10,24.4-25.3,24.8c-18,0.4-36,0-54,0c-1.2,0-2.4,0-3.5-0.2
	c-4.8-1-9.7-2.1-9.8,6.4c-5.2-2.4-9.3-4.3-14.1-6.5c4.8-5.9,3.5-11.3,1.2-17.4c-1.6-4-1.4-8.9-1.4-13.3c-0.1-49.7-0.1-99.3,0-149
	c0-17.8,9-27,26.6-27.1c17.8-0.1,35.7,0,53.5,0.1c1.5,0,3.1-0.1,4.5,0.3c5.4,1.7,9.3,0.9,10.4-6.2c4.8,2.1,8.9,3.9,12.9,5.6
	c0.1,0.8,0.3,1.2,0.1,1.4c-3.5,6-4.6,12-1.6,18.7c1.3,3,0.8,6.9,0.8,10.4C517.7,249.9,517.6,287.7,517.6,326 M463.7,217.8
	c-1.3,0-2.7,0-4,0c-8.3,0-8.3,0-8.3,8.3c0,22.2,0,44.3,0,66.5c0,1.5,0.1,3,0.2,4.5c1.8-1.6,2.5-3.2,3.2-4.9
	c6.4-16.6,12.9-33.2,19.1-49.9c1.5-3.9,2.3-8.3,2.3-12.5C476.5,216.4,477.2,217.9,463.7,217.8 M460.2,316.4
	c-2.6,6.7-5.6,13.2-7.6,20.1c-1.2,4.2-1.1,8.8-0.9,13.2c0.1,1.1,2.6,2.8,4.2,2.9c4.6,0.4,9.3,0.2,14,0.1c5.9,0,6.4-0.5,6.4-6.6
	c0-21,0-41.9,0-62.9c0-1.5-0.3-3-0.4-4.5c-0.4,0-0.7-0.1-1.1-0.1C470,291,465.3,303.3,460.2,316.4z"/>
<path class="st3" d="M393.5,336.1c-0.1,13.6-0.1,27.3-0.3,41.8c0,4,0,7.1,0.1,10.2c0,0-0.1,0-0.5,0.1c-12.7,0.2-25,0.2-37.3,0.5
	c-3.6,0.1-4.9-1.3-5.7-4.6c-1.7-7.6-3.8-15.2-5.8-22.7c-3.3-12.1-6.6-24.3-10-36.4c-0.1-0.4-0.1-0.9-0.2-2
	c-1.4-5.9-2.8-11.1-4.1-16.3c-0.4,0.1-0.8,0.2-1.2,0.3c0,27,0,54,0,81c0,0-0.2,0-0.6,0.2c-12.5,0.1-24.6,0.1-37,0.1
	c0-2.2,0-3.6,0-5.1c0-65.4,0-130.9,0-196.3c0-1.6,0.3-3.3,0.5-4.9c11.2,0,22.3,0.1,33.5-0.1c3.6-0.1,5.2,0.9,6.1,4.6
	c5.5,22.5,11.3,44.9,17,67.4c0.4,1.5,0.9,3.1,2.5,4.5c0-25.2,0-50.5,0-76.1c14.6,0,28.4,0,42.9,0c0,30.4,0,60.5-0.1,91.5
	c0,2.6,0.2,4.4,0.3,6.2c-0.1,16.3-0.1,32.6-0.3,49.8C393.2,332.5,393.4,334.3,393.5,336.1z"/>
<path class="st4" d="M1129.6,285.6c0,25.4,0.1,50.4,0.1,75.4c0,1.8-0.1,3.7-0.3,5.5c-1.6,13.4-9.6,21.5-23.4,22
	c-18.5,0.6-37,0.3-55.5,0.2c-1.2,0-3.4-1.3-3.6-2.3c-2.4-11.7-4.6-23.4-7-35.9c5.7,0,10.8,0,15.9,0c8.8,0,17.7,0.1,26.5,0
	c5.7-0.1,6.8-1.1,6.8-6.7c0.1-11.3,0.1-22.7,0-34c0-6.3-0.8-7-7.4-7.1c-9.2-0.2-18.3,0-27.5-0.6c-9.9-0.7-15.3-6.2-16.8-15.9
	c-0.3-2-0.5-4-0.5-6c0-24-0.1-48,0-72c0.1-12.8,6.7-22.1,17-24.8c2.2-0.6,4.6-1.2,6.9-1.2c20.1-0.1,40.3-0.1,61.1-0.1
	c2.3,12.7,4.7,25.2,7.1,38.4c-2.1,0.1-3.8,0.3-5.5,0.3c-13.2,0-26.3,0-39.5,0c-6,0-6.9,1-6.9,7.1c0,11.2,0.1,22.3-0.1,33.5
	c-0.1,4.7,1.8,6.8,6.4,6.8c7.7,0,15.3,0.1,23,0.1c2.2,0,4.3,0.1,6.5,0.3C1123.7,269.8,1128.5,274.6,1129.6,285.6z"/>
<path class="st3" d="M956.2,331c0-36.8,0-73.1,0-110c-9.2,0-18.1,0-27.7,0c3.6-12.8,6.9-24.8,10.4-36.7c0.3-1,2.4-2.1,3.7-2.1
	c23.3-0.1,46.7-0.1,70,0c1.3,0,3.5,1.5,3.8,2.7c3.3,11.7,6.3,23.4,9.7,35.9c-9.4,0-18.3,0-27.6,0c0,56.2,0,111.8,0,168.1
	c-2.9,0-5.3,0-7.8,0c-9.7,0-19.3-0.2-29,0.1c-4.3,0.1-5.7-0.9-5.7-5.5C956.4,366.2,956.2,348.8,956.2,331z"/>
<path class="st4" d="M617.2,388.9c-15.6,0-30.8,0-46.4,0c0-68.9,0-137.5,0-206.4c13.8,0,27.7,0,42.2,0c0,1.8,0,3.6,0,5.4
	c0,52.3,0.1,104.6-0.1,156.9c0,4.7,1.2,6,5.8,5.8c11.6-0.3,23.3-0.1,35.7-0.1c-0.5,3.2-1,5.9-1.4,8.6c-1.6,8.5-3.4,17-4.7,25.6
	c-0.5,3.4-1.9,4.4-5.2,4.3C634.7,388.7,626.2,388.9,617.2,388.9z"/>
<path class="st5" d="M667.4,218c0-12.1,0-23.7,0-35.6c13.9,0,27.3,0,41.2,0c0,68.6,0,137.1,0,206.1c-13.5,0-27,0-41.2,0
	C667.4,331.7,667.4,275.1,667.4,218z"/>
<path class="st3" d="M917.2,196c0,64.4,0,128.3,0,192.5c-14,0-27.4,0-41.1,0c0-68.7,0-137.2,0-206c13.4,0,26.8,0,41.1,0
	C917.2,186.7,917.2,191.1,917.2,196z"/>
<path class="st6" d="M700.2,70.4c2.8,0,5.1,0,7.8,0c0,19.4,0,38.5,0,57.5c-9.5,2.4-29.1-5.2-39.3-15.5c2.4-2.4,4.9-4.7,7.3-7.2
	c7.6-8,13.1-17.4,15.1-28.2C692.1,71.4,694.3,69.4,700.2,70.4z"/>
<path class="st7" d="M713.7,70.3c4.4,0,8.7,0,13.7,0.3c1,0.9,1.5,1.6,1.9,2.3c0,0.4,0,0.9,0.1,2c0.6,2.4,1.2,4.2,1.8,6
	c0,0.4,0.1,0.9,0.2,1.9c0.5,1.3,0.9,2,1.3,2.7c1.4,3,2.8,5.9,4.4,9.4c0.8,1.2,1.3,1.7,1.8,2.3c0,0,0,0.4,0.2,0.8
	c0.7,1,1.3,1.6,1.8,2.1c1.8,2.2,3.6,4.3,5.8,7c1,1,1.6,1.5,2.2,2c1.2,0.9,2.5,1.9,4.6,3.5c-5,3.2-9.4,6.1-14.5,9.2
	c-1.3,0.7-2,1.1-2.7,1.6c-2.5,0.9-5,1.8-8.2,2.8c-1.1,0.4-1.6,0.6-2.1,0.9c-0.4,0-0.9,0.1-1.9,0.2c-1.1,0.3-1.6,0.5-2.1,0.8
	c-1.1,0.1-2.1,0.2-4,0.2c-4.4,0.8-5.3-0.8-5.3-4.3c0.1-16.5,0-32.9,0.1-49.4C713,73.2,713.4,71.8,713.7,70.3z"/>
<path class="st6" d="M761.1,66.2c-9.6,0-18.8,0-29.5,0c1.1-7.1,1.6-13.8,3.3-20.3c2.4-9.4,7.5-17.4,14.2-24.3c1.5-1.6,2.7-2.6,5-0.8
	c11,8.8,20.3,30.7,18.7,45.3C769.2,66.2,765.4,66.2,761.1,66.2z"/>
<path class="st7" d="M688.3,54c0,0.4,0,0.9-0.1,2.1c-0.1,3.8-0.1,6.9-0.1,9.9c-12.7,0.1-25.4,0.1-38.8-0.1c-1-1.5-1.3-2.8-1.6-4
	c0.1-0.7,0.2-1.5,0.5-2.9c2-7.2,3.8-13.6,5.6-20.1c0.2-0.3,0.4-0.6,0.9-1.3c0.6-1.2,0.9-1.9,1.2-2.7c0.5-0.7,0.9-1.3,1.7-2.4
	c0.7-1.1,1.1-1.8,1.4-2.6c1.5-1.8,2.9-3.5,4.4-5.3c5.6-6.5,5.6-6.5,11.5,0.4c0.9,1,1.5,1.6,2.1,2.1c1.3,2.1,2.6,4.2,4.1,6.8
	c1.3,2.6,2.4,4.6,3.5,6.6c0.5,1.6,1,3.1,1.6,5.4C687,49.1,687.7,51.5,688.3,54z"/>
<path class="st7" d="M692.9,65.1c0-1.4,0-2.8,0.1-4.9c-0.3-2.9-0.6-5-1-7.1c0-0.4,0-0.9,0-2c-1.1-4-2.2-7.3-3.3-10.6
	c-0.2-0.6-0.4-1.2-0.7-2.3c-0.6-1.2-1-1.9-1.5-2.6c-0.1-0.3-0.2-0.7-0.5-1.5c-1-1.8-1.8-3-2.7-4.3c0,0-0.1-0.4-0.2-0.8
	c-0.7-1-1.2-1.6-1.8-2.2c-2.6-3.4-5.3-6.7-8.5-10.9c3.8-2.2,7.7-4.5,12.1-6.9c1.3-0.5,2-0.9,2.7-1.3c1.9-0.6,3.7-1.2,6.2-1.8
	c1.1-0.3,1.6-0.6,2.1-0.9c0.4-0.1,0.9-0.1,1.9-0.2c1.1-0.3,1.6-0.5,2.1-0.7c2.5-0.1,4.9-0.3,8.2-0.5c0,20.4,0,40.5-0.2,61.2
	c-0.5,0.9-0.7,1.3-1,1.6c-4.1,0-8.1-0.1-12.8-0.3C693.5,65.5,693.2,65.3,692.9,65.1z"/>
<path class="st5" d="M727.2,66.3c-4.7-0.2-9.3-0.4-14.1-1.3c-0.2-20.9-0.2-41-0.2-61.1c2.1,0,4.2,0,7,0.2c1.6,0.3,2.4,0.4,3.3,0.4
	c0.4,0.1,0.8,0.2,1.8,0.6c1.1,0.3,1.7,0.4,2.2,0.5c0.9,0.3,1.7,0.6,3.2,1.2c1.3,0.4,2.1,0.6,2.9,0.8c4.4,2.4,8.9,4.8,13.7,7.7
	c0.5,1,0.6,1.4,0.7,1.9c-0.8,0.7-1.5,1.4-2.8,2.5c-0.9,1-1.3,1.7-1.8,2.4c-0.7,0.7-1.3,1.4-2.4,2.5c-0.8,1.1-1.1,1.8-1.5,2.5
	c-2.5,4.9-5.1,9.7-8,15.2c-0.8,2.7-1.3,4.8-1.7,6.9c-0.1,0.4-0.2,0.8-0.5,1.9c-0.3,1.8-0.4,3-0.4,4.1c-0.2,1.7-0.3,3.4-0.6,5.8
	C727.7,63.2,727.5,64.8,727.2,66.3z"/>
<path class="st8" d="M668.2,107c-1.8,0.3-4.1,1.1-4.7,0.4C654.2,97.1,649,85,648,70.7c13.5,0,26.5,0,40.1,0
	C685.9,85.4,679.3,97.2,668.2,107z"/>
<path class="st8" d="M772.6,77.1c-0.1,0.4-0.3,0.8-0.6,1.9c-0.9,3.4-1.7,6.3-2.4,9.1c-0.3,0.6-0.5,1.1-1.1,2.2
	c-0.5,1.3-0.8,2.1-1,2.8c-0.2,0.3-0.4,0.5-0.9,1.2c-0.6,1.2-0.9,2-1.2,2.7c-0.2,0.3-0.4,0.5-1,1.2c-0.9,1.6-1.5,2.7-2.1,3.8
	c-1.9,2.2-3.9,4.5-6.7,7.8c-4.5-5-8.7-9.7-13.2-14.9c-0.8-1.1-1.4-1.8-1.9-2.4c-1.8-4.3-3.6-8.5-5.6-13.5c-0.7-2.8-1.3-4.9-1.9-7
	c1.2-0.5,2.5-1.6,3.7-1.6c11-0.1,22-0.1,33,0c1.1,0,2.3,1.1,3.3,2.4C772.7,74.7,772.6,75.9,772.6,77.1z"/>
<path class="st9" d="M290.9,182.1c0.2,1.7-0.1,3.3-0.1,4.9c0,65.4,0,130.9,0,196.3c0,1.5,0,2.9,0,5.1c12.4,0,24.5,0,37,0
	c-0.8,0.5-2,1.4-3.3,1.4c-10,0.1-20,0-30,0.1c-4,0-5.5-1.4-5.5-5.6c0.1-65.9,0.1-131.9,0.1-197.8C289.2,185,290.1,183.6,290.9,182.1
	z"/>
<path class="st2" d="M658.4,447.8c-5.3,0.1-10.2,0.1-15.6,0.1c-0.5-9.5-0.5-19-0.5-29.5c5,0.2,10-0.1,14.7,0.9
	c5.8,1.2,6.7,6.7,2.6,12.6C666.7,438.5,666.3,444.4,658.4,447.8 M653.3,434.7c-1.7,0.1-3.4,0.2-5.1,0.4c0,3.1,0,5.5,0,8.1
	c4-0.1,8.6,1.9,10.4-3.3C659.7,436.7,657.1,435.2,653.3,434.7 M648.8,429.9c2.4-0.5,4.9-0.8,7.3-1.6c0.3-0.1,0.3-2.9,0.1-3
	c-2.4-0.7-4.8-1.1-7.3-1.6c-0.2,0-0.5,0.4-1,0.8C648,426.1,648.1,427.7,648.8,429.9z"/>
<path class="st1" d="M482.4,447.7c-1.5,0.3-2.8,0.2-4.5,0.3c-0.6-9-0.9-18.1-0.8-27.2c0-0.8,2.8-1.5,4.8-1.6
	c0.5,3.8,0.4,6.9,0.5,10.1c0,0.3,1.2,0.5,1.8,0.7c2.6-2.8,5.3-5.5,7.6-8.5c2.4-3.1,5.2-3.6,9.3-2.3c-3.7,4.2-7.1,8.2-10.8,12.4
	c3.8,5.1,7.4,9.9,11.2,15.2c-2.8,2.7-5.1,1.8-7.2-0.9c-2.4-3.1-4.8-6.3-7.2-9.5C481.2,438.5,483.4,443.5,482.4,447.7z"/>
<path class="st0" d="M1099.1,447.5c-1.7,0.3-3.2,0.3-5.1,0.2c-0.4-9.5-0.4-18.9-0.4-29.4c5.1,0.3,10,0.2,14.8,1.2
	c4.4,0.9,6.3,4.7,6.3,9.1c0.1,4.5-2.1,7.7-6.5,8.9c-2.7,0.8-5.5,0.9-9,1.4C1099.3,441.6,1099.3,444.3,1099.1,447.5 M1099.2,427.6
	c0,1.8,0,3.5,0,5.8c2.6-0.2,4.8,0.2,6.3-0.6c1.6-0.9,3.7-3.5,3.3-4.4c-0.8-1.9-2.9-3.7-4.8-4.4
	C1102.2,423.3,1099.1,422.8,1099.2,427.6z"/>
<path class="st1" d="M830,447.4c-5.6,0.4-11.2,0.5-17.2,0.5c-0.5-9.5-0.5-19-0.5-29c1.7-0.1,3.4-0.2,5.6-0.4c0,8.3,0,16.1,0,24.6
	c3.2,0,6,0.1,8.7,0C829.7,442.8,830.5,444.3,830,447.4z"/>
<path class="st1" d="M602.6,424c-0.9,1.6-1.9,3-1.9,4.5c-0.2,6.2-0.1,12.4-0.1,19.3c-1.7,0-3,0-4.8,0c-0.4-7.8-0.4-15.6-0.4-23.7
	c-2.5-0.1-4.3-0.2-6.6-0.8c-0.6-1.8-0.8-3.1-0.9-4.5c6.5-0.1,13.1-0.2,20,0.3c0.6,1.4,0.7,2.2,0.9,3.1c-0.1,0.2-0.2,0.4-0.7,0.8
	c-1.3,0.5-2.1,0.7-3,0.9C604.4,423.9,603.7,423.9,602.6,424z"/>
</svg>
