<?xml version="1.0" standalone="no"?>
<!DOCTYPE svg PUBLIC "-//W3C//DTD SVG 20010904//EN"
 "http://www.w3.org/TR/2001/REC-SVG-20010904/DTD/svg10.dtd">
<svg version="1.0" xmlns="http://www.w3.org/2000/svg"
 width="512.000000pt" height="512.000000pt" viewBox="0 0 512.000000 512.000000"
 preserveAspectRatio="xMidYMid meet">

<g transform="translate(0.000000,512.000000) scale(0.100000,-0.100000)"
fill="#000000" stroke="none">
<path d="M2396 5064 c-350 -63 -639 -356 -701 -709 -104 -600 417 -1125 1013
-1021 479 84 801 540 718 1015 -85 484 -544 803 -1030 715z m84 -469 l0 -315
-84 0 -83 0 -7 41 c-17 106 -109 251 -204 321 -31 23 -59 44 -62 46 -11 8 104
103 166 138 75 42 194 83 242 84 l32 0 0 -315z m297 290 c43 -13 107 -41 142
-62 63 -37 171 -127 161 -135 -3 -2 -31 -23 -62 -46 -95 -70 -187 -215 -204
-321 l-7 -41 -83 0 -84 0 0 315 0 315 29 0 c17 0 65 -11 108 -25z m-741 -397
c41 -38 114 -162 114 -194 0 -11 -30 -14 -150 -14 l-150 0 0 28 c0 37 25 122
57 194 l25 57 30 -15 c17 -9 50 -34 74 -56z m1209 -71 c14 -43 25 -91 25 -108
l0 -29 -150 0 c-113 0 -150 3 -150 13 0 24 58 134 91 172 19 21 54 51 79 67
l44 28 18 -32 c10 -18 29 -68 43 -111z m-1095 -311 c0 -7 -16 -45 -35 -83 -36
-71 -96 -138 -153 -167 l-30 -15 -25 57 c-32 72 -57 157 -57 194 l0 28 150 0
c120 0 150 -3 150 -14z m330 -301 l0 -315 -29 0 c-48 0 -181 46 -249 87 -35
20 -86 59 -115 85 -45 41 -50 49 -35 58 123 75 233 234 255 368 l6 32 83 0 84
0 0 -315z m334 274 c17 -106 109 -251 204 -321 31 -23 59 -44 62 -46 10 -8
-98 -98 -161 -135 -69 -41 -202 -87 -250 -87 l-29 0 0 315 0 315 84 0 83 0 7
-41z m456 13 c0 -37 -25 -122 -57 -194 l-25 -57 -30 15 c-57 29 -117 96 -153
167 -19 38 -35 76 -35 83 0 11 30 14 150 14 l150 0 0 -28z"/>
<path d="M602 3461 c-306 -76 -522 -351 -522 -666 0 -57 3 -69 25 -90 13 -14
31 -25 40 -25 13 0 15 -22 15 -152 0 -179 15 -259 64 -361 47 -97 114 -179
192 -235 l64 -47 0 -81 0 -82 -122 -4 c-105 -3 -130 -8 -173 -28 -63 -31 -124
-91 -155 -155 -24 -48 -25 -60 -28 -267 l-3 -218 25 -25 25 -25 751 0 751 0
25 25 26 26 -4 217 c-3 206 -5 219 -28 267 -31 64 -91 124 -155 155 -43 20
-68 25 -172 28 l-123 4 0 82 0 81 64 47 c115 83 211 232 241 375 21 100 21
526 -1 631 -20 96 -67 198 -128 279 -155 205 -442 305 -694 244z m277 -156
c62 -15 151 -57 200 -94 l23 -18 -57 -120 -57 -121 -121 -45 c-190 -70 -255
-82 -449 -82 -91 0 -169 3 -173 7 -4 4 0 39 9 79 64 282 345 460 625 394z
m385 -378 l7 -28 -38 25 c-21 14 -43 26 -50 26 -18 0 -16 15 9 63 l21 42 23
-50 c12 -27 25 -63 28 -78z m-117 -138 c24 -11 63 -44 88 -72 l45 -52 0 -131
c0 -72 -5 -155 -10 -185 -47 -247 -297 -422 -542 -381 -200 34 -361 189 -398
381 -5 30 -10 111 -10 181 l0 127 153 6 c168 6 278 29 442 91 160 62 173 64
232 35z m-347 -984 c41 0 94 3 118 8 l43 7 -3 -102 -3 -102 -33 -23 c-64 -42
-180 -42 -244 0 l-33 23 -3 102 -3 102 43 -7 c24 -5 77 -8 118 -8z m-281 -279
c44 -70 168 -126 281 -126 113 0 237 56 281 126 19 31 25 34 70 34 l49 0 0
-200 0 -200 -400 0 -400 0 0 200 0 200 49 0 c45 0 51 -3 70 -34z m-279 -176
l0 -190 -40 0 -40 0 0 134 c0 74 5 147 11 163 9 24 56 83 66 83 2 0 3 -85 3
-190z m1186 113 c10 -22 14 -75 14 -168 l0 -135 -40 0 -40 0 0 192 0 191 26
-24 c15 -13 33 -38 40 -56z"/>
<path d="M4185 3465 c-187 -41 -353 -172 -439 -347 -57 -116 -66 -176 -66
-478 0 -301 9 -363 64 -475 48 -96 115 -178 192 -233 l64 -47 0 -81 0 -82
-122 -4 c-105 -3 -130 -8 -173 -28 -63 -31 -124 -91 -155 -155 -24 -48 -25
-60 -28 -267 l-3 -218 25 -25 25 -25 751 0 751 0 25 25 26 26 -4 217 c-3 206
-5 219 -28 267 -31 64 -91 124 -155 155 -43 20 -68 25 -172 28 l-123 4 0 84
c0 83 0 84 31 100 46 24 159 142 197 206 18 31 45 89 60 130 l27 73 0 325 0
325 -27 73 c-39 107 -84 177 -164 257 -150 150 -372 216 -579 170z m226 -155
c177 -34 327 -177 374 -355 20 -78 19 -80 -11 -56 -34 27 -48 26 -137 -4 -212
-71 -438 -71 -635 0 -84 30 -102 31 -136 4 -30 -24 -31 -22 -11 56 65 247 307
402 556 355z m-391 -588 c182 -52 376 -54 570 -6 l111 27 49 -48 50 -49 0
-122 c0 -211 -34 -310 -144 -420 -186 -186 -468 -190 -662 -11 -114 105 -154
216 -154 421 l0 130 47 48 c26 26 52 48 58 48 5 0 39 -8 75 -18z m300 -917
c47 0 102 3 123 7 l38 7 -3 -102 -3 -101 -33 -23 c-64 -42 -180 -42 -244 0
l-33 23 -3 101 -3 102 38 -7 c21 -4 76 -7 123 -7z m-281 -279 c44 -70 168
-126 281 -126 113 0 237 56 281 126 19 31 25 34 70 34 l49 0 0 -200 0 -200
-400 0 -400 0 0 200 0 200 49 0 c45 0 51 -3 70 -34z m-279 -176 l0 -190 -40 0
-40 0 0 134 c0 74 5 147 11 163 9 24 56 83 66 83 2 0 3 -85 3 -190z m1186 113
c10 -22 14 -75 14 -168 l0 -135 -40 0 -40 0 0 192 0 191 26 -24 c15 -13 33
-38 40 -56z"/>
<path d="M2335 3065 c-148 -33 -252 -90 -361 -199 -89 -90 -142 -174 -183
-294 l-26 -77 0 -370 c0 -395 1 -403 55 -547 46 -123 172 -279 288 -356 l52
-35 0 -93 0 -94 -108 0 c-174 0 -279 -38 -384 -138 -65 -62 -120 -159 -138
-246 -7 -34 -10 -135 -8 -265 3 -230 5 -235 72 -285 27 -21 34 -21 966 -21
932 0 939 0 966 21 67 50 69 55 72 285 2 130 -1 231 -8 265 -18 87 -73 184
-138 246 -105 100 -210 138 -384 138 l-108 0 0 94 0 93 53 35 c115 77 241 233
287 356 54 143 55 154 55 527 l0 350 -32 67 c-42 90 -100 150 -186 193 -38 19
-76 35 -83 35 -11 0 -14 28 -14 140 0 136 -1 142 -25 165 l-24 25 -298 -1
c-210 0 -316 -5 -358 -14z m545 -280 c0 -131 1 -137 25 -160 16 -17 35 -25 58
-25 63 0 124 -29 170 -80 50 -56 67 -103 67 -189 l0 -61 -70 46 c-77 52 -72
52 -206 10 -111 -34 -264 -50 -399 -42 -116 6 -296 35 -380 61 -73 22 -83 20
-158 -30 l-67 -45 0 68 c0 231 115 424 313 521 45 22 105 44 132 49 28 6 155
10 283 11 l232 1 0 -135z m-670 -619 c283 -60 500 -61 732 -2 l92 23 84 -56
84 -55 -4 -161 c-4 -126 -10 -174 -26 -225 -31 -94 -88 -185 -162 -260 -76
-75 -148 -121 -252 -158 -63 -22 -89 -26 -193 -27 -97 0 -133 4 -190 22 -162
52 -308 175 -383 324 -55 108 -72 192 -72 355 l0 131 83 56 c45 31 84 56 87
56 3 1 57 -10 120 -23z m350 -1079 c91 0 152 5 188 15 l52 15 0 -109 c0 -123
-9 -151 -65 -193 -93 -72 -257 -72 -350 0 -56 42 -65 70 -65 193 l0 109 53
-15 c35 -10 96 -15 187 -15z m-370 -287 c76 -150 296 -234 483 -185 119 31
213 98 257 185 l20 40 85 0 85 0 0 -320 0 -320 -560 0 -560 0 0 320 0 320 85
0 85 0 20 -40z m-350 -305 l0 -295 -81 0 -81 0 4 203 c3 190 5 205 28 252 24
50 100 135 120 135 7 0 10 -100 10 -295z m1491 266 c19 -16 51 -58 70 -93 l34
-63 3 -202 4 -203 -81 0 -81 0 0 295 c0 162 3 295 8 295 4 0 23 -13 43 -29z"/>
</g>
</svg>
